<?xml version="1.0" standalone="no"?>
<!DOCTYPE svg PUBLIC "-//W3C//DTD SVG 20010904//EN"
 "http://www.w3.org/TR/2001/REC-SVG-20010904/DTD/svg10.dtd">
<svg version="1.0" xmlns="http://www.w3.org/2000/svg"
 width="5450.000000pt" height="3250.000000pt" viewBox="0 0 5450.000000 3250.000000"
 preserveAspectRatio="xMidYMid meet">

<g transform="translate(0.000000,3250.000000) scale(0.100000,-0.100000)"
fill="#000000" stroke="none">
<path d="M26860 31393 c-3961 -122 -7608 -1713 -10375 -4524 -2433 -2472
-3919 -5611 -4279 -9039 -61 -573 -80 -968 -80 -1610 0 -518 7 -742 40 -1170
196 -2610 1061 -5112 2513 -7270 939 -1396 2124 -2652 3461 -3667 2216 -1682
4828 -2711 7595 -2992 558 -57 940 -75 1565 -75 519 0 751 8 1170 40 3593 273
6909 1785 9484 4324 1009 996 1839 2070 2538 3290 1571 2739 2236 5932 1902
9130 -282 2703 -1277 5254 -2897 7430 -1087 1460 -2449 2737 -3962 3717 -2191
1417 -4650 2225 -7285 2393 -400 25 -1002 35 -1390 23z m955 -948 c2072 -62
4231 -635 6085 -1615 2063 -1090 3804 -2635 5127 -4550 1401 -2028 2252 -4402
2458 -6855 77 -927 64 -1888 -40 -2810 -427 -3778 -2351 -7218 -5369 -9595
-2206 -1738 -4895 -2783 -7701 -2995 -684 -51 -1473 -51 -2155 1 -2366 179
-4644 947 -6635 2236 -1947 1261 -3566 2984 -4702 5003 -956 1698 -1553 3588
-1747 5530 -81 802 -92 1691 -31 2500 223 2951 1356 5743 3258 8025 776 932
1679 1772 2662 2476 1880 1348 4066 2219 6345 2528 821 112 1543 147 2445 121z"/>
<path d="M26735 29800 c-1968 -89 -3832 -573 -5550 -1440 -1860 -940 -3487
-2300 -4742 -3965 -1466 -1943 -2377 -4232 -2647 -6645 -63 -561 -81 -893 -81
-1530 0 -522 7 -719 41 -1125 245 -3000 1482 -5828 3523 -8055 392 -428 876
-890 1326 -1265 2148 -1791 4798 -2876 7575 -3099 690 -56 1447 -60 2115 -10
2567 189 4982 1080 7055 2604 1868 1373 3373 3227 4330 5335 642 1416 1039
2948 1165 4495 55 687 59 1432 10 2110 -185 2545 -1072 4962 -2579 7025 -974
1334 -2215 2506 -3605 3405 -1513 978 -3211 1647 -4973 1959 -516 91 -1011
150 -1568 187 -278 18 -1120 26 -1395 14z m2515 -6194 c615 -41 992 -76 2390
-226 789 -84 1323 -132 1860 -167 340 -22 1309 -25 1555 -5 355 30 634 74 935
147 296 72 300 71 300 -110 0 -686 -506 -1203 -1425 -1454 -676 -185 -1544
-236 -2675 -155 -487 34 -1023 89 -1470 150 -669 91 -1106 171 -1985 364 -755
165 -955 200 -1262 221 -447 31 -854 -55 -1344 -281 -462 -214 -717 -392
-1167 -813 -329 -309 -642 -647 -1438 -1557 -602 -689 -767 -870 -1110 -1220
-574 -586 -1582 -1658 -1841 -1960 -246 -286 -398 -520 -439 -672 -19 -72 -18
-108 6 -170 11 -29 20 -65 20 -80 0 -35 -56 -108 -100 -130 -44 -23 -138 -23
-211 -2 -173 50 -526 289 -661 447 -365 425 -457 947 -312 1757 183 1019 849
2521 1817 4096 166 271 301 517 382 694 76 165 120 278 113 286 -8 7 -241 -80
-423 -158 -874 -374 -1730 -977 -2560 -1803 -337 -336 -639 -671 -928 -1028
-288 -357 -376 -431 -512 -432 -60 0 -81 5 -140 34 -140 69 -290 250 -479 579
-161 280 -188 364 -162 489 20 97 57 141 265 310 1620 1321 3038 2173 4171
2507 209 61 431 114 532 127 231 29 482 -46 649 -193 105 -92 256 -268 285
-333 79 -171 108 -551 59 -755 -66 -271 -381 -1096 -709 -1855 -65 -148 -166
-389 -226 -535 -134 -329 -297 -704 -486 -1122 -371 -817 -588 -1508 -619
-1968 -3 -47 -8 -103 -10 -125 l-5 -40 20 25 c12 14 103 149 204 301 101 151
237 343 303 425 65 82 177 223 249 314 72 91 487 617 924 1170 437 553 868
1100 959 1215 377 482 739 895 1168 1331 1048 1066 2097 1808 3039 2149 358
130 690 199 1074 224 207 14 1146 5 1420 -13z m7784 -111 c166 -43 368 -194
579 -430 201 -226 314 -453 347 -697 19 -135 -15 -257 -119 -433 -32 -55 -331
-561 -663 -1125 -648 -1096 -754 -1281 -953 -1655 -405 -759 -603 -1203 -721
-1614 -64 -221 -77 -308 -72 -476 5 -153 23 -225 73 -291 126 -165 463 -66
758 223 118 115 414 467 668 793 122 157 816 1082 842 1123 21 33 48 35 89 6
26 -19 30 -27 25 -58 -5 -36 -206 -413 -555 -1041 -432 -778 -725 -1266 -962
-1605 -132 -188 -278 -264 -506 -265 -152 0 -215 26 -594 243 -288 166 -352
216 -440 346 -119 177 -216 470 -240 731 -23 235 17 552 110 870 43 148 160
429 337 809 58 124 140 303 183 396 43 94 94 205 114 249 54 116 259 504 392
743 262 468 284 511 848 1618 172 337 296 635 325 781 40 194 37 503 -5 603
-30 71 -10 138 46 160 33 13 28 13 94 -4z m-11752 -2782 c78 -31 381 -269 552
-433 139 -133 169 -196 131 -271 -9 -16 -85 -128 -170 -249 -84 -121 -202
-297 -262 -390 -59 -93 -116 -172 -125 -176 -75 -24 -664 394 -818 580 -22 26
-40 54 -40 60 0 27 514 830 561 877 25 25 112 26 171 2z m7049 -56 c180 -109
403 -268 510 -365 113 -102 160 -246 140 -427 -14 -120 -76 -229 -385 -680
-390 -567 -815 -1206 -871 -1309 -96 -177 -194 -439 -252 -674 -36 -148 -39
-317 -5 -379 22 -42 64 -73 99 -73 32 0 117 46 165 89 97 87 599 721 1133
1431 472 629 1503 2030 1538 2091 31 54 86 106 123 115 42 11 101 -2 151 -33
27 -16 127 -65 223 -108 196 -90 250 -129 250 -184 0 -39 -42 -138 -117 -275
-31 -56 -112 -213 -181 -351 -121 -243 -237 -459 -476 -890 -139 -250 -414
-797 -548 -1090 -53 -115 -152 -330 -222 -477 -168 -358 -283 -625 -501 -1168
-274 -682 -376 -900 -592 -1259 -293 -488 -439 -639 -734 -761 -413 -172
-1000 -108 -1620 174 -374 171 -628 384 -888 745 -68 94 -78 116 -61 136 20
24 37 18 145 -50 467 -293 1001 -426 1403 -350 319 61 658 278 896 574 197
245 336 472 645 1055 140 264 380 743 354 706 -187 -260 -674 -841 -751 -894
-104 -72 -176 -74 -329 -7 -286 123 -502 298 -659 532 -209 312 -272 628 -208
1044 5 32 -23 -10 -143 -210 -429 -720 -713 -1153 -826 -1263 -103 -99 -164
-127 -277 -127 -79 0 -91 3 -163 39 -43 22 -128 74 -188 116 -60 43 -175 120
-256 171 -194 122 -298 223 -365 355 -145 281 -148 576 -8 994 108 323 259
672 507 1172 129 262 169 349 159 357 -13 11 -78 -64 -696 -804 -1047 -1255
-1591 -1974 -1677 -2215 -14 -41 -23 -88 -23 -127 0 -70 -20 -103 -63 -103
-51 0 -145 60 -240 153 -152 149 -241 287 -273 423 -28 123 -19 306 23 439 9
28 270 621 580 1318 311 698 562 1271 560 1274 -7 6 -154 -189 -299 -397 -385
-553 -1073 -1625 -1493 -2325 -301 -503 -421 -691 -477 -748 -84 -84 -204
-124 -320 -106 -182 28 -382 132 -550 287 -35 32 -94 83 -133 114 -234 189
-391 426 -472 716 -49 178 -33 417 52 740 124 472 329 988 600 1507 119 230
112 225 205 150 134 -109 301 -230 515 -373 127 -85 233 -159 237 -166 18 -27
3 -68 -76 -210 -271 -488 -502 -1002 -651 -1450 -84 -253 -116 -388 -117 -490
-1 -220 108 -231 352 -37 208 165 732 748 1191 1326 273 343 348 445 613 830
137 198 445 640 685 983 240 342 462 659 493 705 67 97 85 112 131 103 41 -8
395 -203 532 -294 108 -71 272 -229 306 -294 10 -21 24 -60 30 -87 20 -94 3
-141 -197 -555 -206 -423 -406 -816 -526 -1034 -75 -136 -87 -172 -55 -172 31
0 477 487 793 865 162 194 360 446 519 660 82 110 234 309 338 443 103 134
207 273 231 310 84 131 153 164 249 119 130 -61 691 -559 744 -660 24 -46 22
-141 -3 -197 -12 -25 -65 -108 -119 -185 -681 -972 -1186 -1864 -1418 -2505
-54 -149 -77 -254 -77 -350 0 -140 54 -174 176 -109 192 100 451 363 855 869
159 199 443 572 603 792 109 151 434 652 578 892 67 111 165 266 218 346 120
181 218 342 350 580 165 295 212 413 212 530 -1 112 23 116 169 27z m2194
-4677 c156 -54 345 -200 535 -414 203 -229 320 -462 350 -697 12 -97 0 -178
-43 -284 -28 -68 -360 -639 -1120 -1920 -314 -529 -455 -783 -740 -1330 -324
-622 -500 -1052 -596 -1455 -41 -170 -45 -210 -32 -321 31 -278 139 -404 315
-369 143 28 340 142 495 286 126 118 394 432 677 794 107 136 831 1103 857
1143 21 33 39 34 84 5 32 -19 35 -24 30 -57 -9 -68 -778 -1459 -1144 -2071
-170 -284 -406 -630 -470 -692 -113 -107 -225 -148 -404 -148 -164 0 -236 30
-639 264 -120 69 -240 147 -272 175 -160 144 -277 384 -345 710 -72 346 -6
840 168 1268 86 211 175 411 285 645 53 112 114 244 136 293 135 307 302 633
573 1120 223 400 309 564 493 930 83 165 186 365 228 445 175 332 360 749 394
892 11 45 25 144 32 219 14 161 1 339 -32 432 -19 53 -19 60 -5 95 9 20 23 43
32 50 25 18 92 15 158 -8z m-11920 -505 c453 -48 851 -129 1390 -283 798 -228
1355 -325 1860 -326 319 0 476 24 698 106 104 39 108 40 134 23 26 -17 26 -18
20 -109 -18 -254 -118 -468 -301 -644 -167 -160 -376 -266 -659 -332 -343 -81
-807 -91 -1312 -29 -496 61 -855 146 -1705 404 -749 227 -1060 299 -1405 325
-316 24 -606 -26 -840 -142 -138 -69 -244 -147 -375 -277 l-125 -123 145 -23
c547 -88 1403 -320 2075 -562 1058 -381 1865 -814 2405 -1291 293 -259 468
-541 541 -873 114 -522 -61 -1157 -468 -1704 -158 -212 -323 -379 -473 -479
-523 -350 -1082 -543 -1820 -626 -1178 -133 -2443 102 -3540 656 -392 197
-671 393 -939 657 -392 387 -617 812 -712 1342 -27 151 -37 510 -20 678 26
241 110 578 164 658 49 73 86 28 112 -136 26 -168 127 -446 236 -655 418 -796
1205 -1318 2484 -1645 587 -150 972 -181 1613 -130 364 30 630 81 927 181 609
203 1007 477 1155 797 103 221 76 458 -80 687 -132 195 -453 484 -775 700
-782 524 -1888 916 -3230 1145 -131 23 -198 58 -296 155 -140 138 -203 323
-178 520 26 210 182 391 619 717 489 365 1078 587 1710 642 69 6 141 13 160
15 86 10 665 -4 805 -19z m5268 -515 c373 -171 603 -374 732 -645 82 -174 84
-334 6 -522 -40 -98 -71 -146 -283 -451 -105 -150 -188 -275 -186 -277 3 -3
146 -14 318 -25 172 -11 331 -25 352 -32 87 -26 116 -102 58 -151 -42 -36
-110 -59 -310 -105 -232 -54 -413 -87 -597 -108 l-152 -18 -134 -195 c-703
-1023 -1151 -1901 -1326 -2596 -102 -406 -100 -612 5 -704 43 -38 69 -45 148
-39 193 16 495 244 875 663 295 325 438 504 982 1230 321 428 460 623 533 745
55 91 156 253 226 360 223 342 442 728 511 900 35 86 43 119 47 193 4 80 7 90
28 99 19 9 34 4 91 -27 102 -56 333 -212 468 -317 195 -152 239 -239 233 -457
l-3 -120 -56 -108 c-31 -61 -178 -286 -334 -513 -449 -653 -827 -1227 -887
-1345 -92 -181 -182 -430 -229 -635 -17 -76 -17 -263 0 -323 19 -65 61 -101
110 -92 130 24 290 199 897 980 297 382 1864 2500 1920 2595 52 88 107 130
171 130 22 0 264 -111 443 -204 78 -40 114 -85 104 -131 -8 -43 -58 -149 -142
-305 -40 -74 -120 -229 -176 -345 -57 -115 -165 -322 -241 -460 -316 -574
-368 -671 -438 -812 -305 -608 -560 -1229 -828 -2018 -140 -413 -130 -383
-178 -556 -86 -310 -200 -606 -351 -904 -268 -533 -572 -886 -905 -1053 -195
-98 -494 -148 -780 -130 -209 12 -377 61 -605 174 -165 82 -314 178 -650 418
-674 482 -1101 711 -1688 905 -543 180 -909 234 -1217 181 -64 -12 -126 -18
-136 -15 -60 19 21 200 144 317 315 304 968 375 1642 178 274 -81 509 -186
1030 -462 563 -299 739 -383 945 -453 176 -60 237 -70 435 -70 158 0 190 3
260 23 167 48 342 156 455 279 129 142 394 588 583 983 124 261 390 850 383
850 -2 0 -36 -44 -77 -97 -109 -146 -258 -331 -394 -487 -66 -77 -148 -172
-182 -212 -98 -114 -170 -155 -275 -155 -54 -1 -74 6 -177 56 -185 90 -328
191 -467 330 -206 205 -323 415 -384 690 -37 164 -26 429 26 650 25 109 40
134 -235 -385 -278 -522 -433 -771 -634 -1014 -103 -125 -200 -208 -302 -257
-90 -43 -200 -65 -274 -54 -65 10 -285 82 -356 117 -215 108 -499 341 -651
535 -78 98 -182 268 -212 343 -81 203 -110 548 -68 804 54 331 166 663 366
1086 126 266 450 882 595 1131 l32 55 -141 12 c-78 7 -197 24 -266 38 -139 28
-333 89 -351 110 -6 7 -12 28 -12 46 -2 33 -1 33 83 62 148 49 436 96 783 128
l138 12 88 156 c225 395 760 1360 780 1405 56 126 79 319 49 403 -12 31 -11
35 12 54 33 27 66 20 203 -42z m6567 -6235 c0 -35 0 -35 -45 -35 l-45 0 0
-120 0 -120 -35 0 -35 0 0 120 0 120 -45 0 c-45 0 -45 0 -45 35 l0 35 125 0
125 0 0 -35z m162 -30 c45 -73 39 -75 93 18 26 45 30 48 64 45 l36 -3 3 -152
3 -153 -35 0 -35 0 -3 97 -3 97 -42 -63 -41 -64 -39 58 -38 58 -3 -91 -3 -92
-34 0 -35 0 0 155 0 155 35 0 c33 0 39 -5 77 -65z"/>
</g>
</svg>
